HIERARCHY
ROOT hip
{
	OFFSET 0.000000 0.000000 0.000000 
	CHANNELS 6 Xposition Yposition Zposition Xrotation Zrotation Yrotation
	JOINT abdomen
	{
		OFFSET 0.000000 3.402643 0.000000 
		CHANNELS 3 Xrotation Zrotation Yrotation
		JOINT chest
		{
			OFFSET 0.000000 8.438565 -0.680529 
			CHANNELS 3 Xrotation Zrotation Yrotation
			JOINT neck
			{
				OFFSET 0.000000 10.207942 -0.272212 
				CHANNELS 3 Xrotation Zrotation Yrotation
				JOINT head
				{
					OFFSET 0.000000 3.130431 0.000000 
					CHANNELS 3 Xrotation Zrotation Yrotation
					End Site
					{
						OFFSET 0.000000 3.130435 0.000000 
					}
				}
			}
			JOINT lCollar
			{
				OFFSET 3.470700 6.669187 -0.816635 
				CHANNELS 3 Yrotation Zrotation Xrotation
				JOINT lShldr
				{
					OFFSET 3.198488 0.000000 0.000000 
					CHANNELS 3 Zrotation Yrotation Xrotation
					JOINT lForeArm
					{
						OFFSET 10.139888 0.000000 0.000000 
						CHANNELS 3 Yrotation Zrotation Xrotation
						JOINT lHand
						{
							OFFSET 8.370511 0.000000 0.000000 
							CHANNELS 3 Zrotation Yrotation Xrotation
							End Site
							{
								OFFSET 4.083176 0.000000 0.000000 
							}
						}
					}
				}
			}
			JOINT rCollar
			{
				OFFSET -3.470700 6.669187 -0.816635 
				CHANNELS 3 Yrotation Zrotation Xrotation
				JOINT rShldr
				{
					OFFSET -3.198488 0.000000 0.000000 
					CHANNELS 3 Zrotation Yrotation Xrotation
					JOINT rForeArm
					{
						OFFSET -10.139888 0.000000 0.000000 
						CHANNELS 3 Yrotation Zrotation Xrotation
						JOINT rHand
						{
							OFFSET -8.370511 0.000000 0.000000 
							CHANNELS 3 Zrotation Yrotation Xrotation
							End Site
							{
								OFFSET -4.083176 0.000000 0.000000 
							}
						}
					}
				}
			}
		}
	}
	JOINT lThigh
	{
		OFFSET 5.308129 -1.633274 1.361059 
		CHANNELS 3 Xrotation Zrotation Yrotation
		JOINT lShin
		{
			OFFSET -2.041588 -20.007561 0.000000 
			CHANNELS 3 Xrotation Zrotation Yrotation
			JOINT lFoot
			{
				OFFSET 0.000000 -19.190928 -1.224953 
				CHANNELS 3 Xrotation Yrotation Zrotation
				End Site
				{
					OFFSET 0.000000 -2.449906 4.627600 
				}
			}
		}
	}
	JOINT rThigh
	{
		OFFSET -5.308129 -1.633274 1.361059 
		CHANNELS 3 Xrotation Zrotation Yrotation
		JOINT rShin
		{
			OFFSET 2.041588 -20.007561 0.000000 
			CHANNELS 3 Xrotation Zrotation Yrotation
			JOINT rFoot
			{
				OFFSET 0.000000 -19.190928 -1.224953 
				CHANNELS 3 Xrotation Yrotation Zrotation
				End Site
				{
					OFFSET 0.000000 -2.449906 4.627600 
				}
			}
		}
	}
}
MOTION
Frames: 6
Frame Time: 0.016667
-0.070984 49.629143 52.099640 179.982040 179.980530 4.580081 28.987394 -0.537101 -0.322343 -5.648581 4.004747 -3.827436 -37.430004 -1.445290 0.322163 5.588009 2.050767 -0.214706 -5.858140 -12.378829 -0.037955 -86.016113 -35.506931 -2.209010 -0.687263 -5.954307 6.037358 0.638549 0.088152 -6.991632 12.787541 -3.632739 -0.085538 93.051308 54.642303 18.458456 56.410732 2.291465 4.188704 -19.101858 11.164473 -5.739646 2.749153 3.773999 0.109626 -2.763228 -3.816582 0.080046 -0.038019 -0.206975 -0.078555 -1.590231 -5.394423 -0.417063 6.413054 4.831664 0.553689 -4.191030 0.248339 0.094140 
-0.070984 49.629143 52.099640 179.982040 179.980530 4.580081 29.251068 -0.537101 -0.322343 -5.648581 4.004747 -3.827436 -37.517899 -1.445290 0.322163 5.588009 2.050767 -0.214706 -5.858140 -12.378829 -0.037955 -86.016113 -35.506931 -2.209010 -0.687263 -5.954307 6.037358 0.638549 0.088152 -6.991632 12.787541 -3.632739 -0.085538 91.665070 52.095856 17.394623 63.099583 2.143125 4.148668 -18.814808 8.370746 -5.692554 2.749153 3.773999 0.109626 -2.763228 -3.816582 0.080046 -0.038019 -0.206975 -0.078555 -1.590231 -5.394423 -0.417063 6.413054 4.831664 0.553689 -4.191030 0.248339 0.094140 
-0.070984 49.629143 52.099640 179.982040 179.980530 4.580081 29.514744 -0.537101 -0.322343 -5.648581 4.004747 -3.827436 -37.605789 -1.445290 0.322163 5.588009 2.050767 -0.214706 -5.858140 -12.378829 -0.037955 -86.016113 -35.506931 -2.209010 -0.687263 -5.954307 6.037358 0.638549 0.088152 -6.991632 12.787541 -3.632739 -0.085538 90.433647 49.536873 16.477127 69.770630 1.988247 4.129292 -18.527191 5.568768 -5.663013 2.749153 3.773999 0.109626 -2.763228 -3.816582 0.080046 -0.038019 -0.206975 -0.078555 -1.590231 -5.394423 -0.417063 6.413054 4.831664 0.553689 -4.191030 0.248339 0.094140 
-0.070984 49.629143 52.099640 179.982040 179.980530 4.580081 29.778412 -0.537101 -0.322343 -5.648581 4.004747 -3.827436 -37.693676 -1.445290 0.322163 5.588009 2.050767 -0.214706 -5.858140 -12.378829 -0.037955 -86.016113 -35.506931 -2.209010 -0.687263 -5.954307 6.037358 0.638549 0.088152 -6.991632 12.787541 -3.632739 -0.085538 89.423431 46.889797 15.702803 76.370476 1.840998 4.126004 -18.258551 2.766493 -5.648871 2.749153 3.773999 0.109626 -2.763228 -3.816582 0.080046 -0.038019 -0.206975 -0.078555 -1.590231 -5.394423 -0.417063 6.413054 4.831664 0.553689 -4.191030 0.248339 0.094140 
-0.070984 49.629143 52.099640 179.982040 179.980530 4.580081 30.041992 -0.537101 -0.312578 -5.648581 4.004747 -3.827436 -37.781567 -1.445290 0.322163 5.588009 2.050767 -0.214706 -5.858140 -12.378829 -0.037955 -86.016113 -35.506931 -2.209010 -0.687263 -5.954307 6.037358 0.638549 0.088152 -6.991632 12.787541 -3.632739 -0.085538 88.493477 44.246399 15.027678 82.949677 1.688131 4.143109 -17.980013 -0.023350 -5.647877 2.749153 3.773999 0.109626 -2.763228 -3.816582 0.080046 -0.038019 -0.206975 -0.078555 -1.590231 -5.394423 -0.417063 6.413054 4.831664 0.553689 -4.191030 0.248339 0.094140 
-0.070984 49.629143 52.099640 179.982040 179.980530 4.580081 29.778412 -0.537101 -0.322343 -5.648581 4.004747 -3.827436 -36.814960 -1.435523 0.331927 5.588009 2.050767 -0.214706 -5.858140 -12.378829 -0.037955 -86.016113 -35.506931 -2.209010 -0.687263 -5.954307 6.037358 0.638549 0.088152 -6.991632 12.787541 -3.632739 -0.085538 89.003502 45.841011 15.419388 77.853737 1.806742 4.129994 -18.259468 2.775738 -5.651879 2.749153 3.773999 0.109626 -2.763228 -3.816582 0.080046 -0.038019 -0.206975 -0.078555 -1.590231 -5.394423 -0.417063 6.413054 4.831664 0.553689 -4.191030 0.248339 0.094140 
